<svg width="40" height="40" viewBox="0 0 40 40" fill="none" xmlns="http://www.w3.org/2000/svg">
<rect x="0.25" y="0.25" width="39.5" height="39.5" rx="19.75" fill="#323630"/>
<rect x="0.25" y="0.25" width="39.5" height="39.5" rx="19.75" stroke="#646C60" stroke-width="0.5"/>
<path d="M23.3327 20.75V24.25C23.3327 27.1667 22.166 28.3334 19.2493 28.3334H15.7493C12.8327 28.3334 11.666 27.1667 11.666 24.25V20.75C11.666 17.8334 12.8327 16.6667 15.7493 16.6667H19.2493C22.166 16.6667 23.3327 17.8334 23.3327 20.75Z" stroke="white" stroke-width="1.5" stroke-linecap="round" stroke-linejoin="round"/>
<path d="M28.3327 15.75V19.25C28.3327 22.1667 27.166 23.3334 24.2494 23.3334H23.3327V20.75C23.3327 17.8334 22.166 16.6667 19.2493 16.6667H16.666V15.75C16.666 12.8334 17.8327 11.6667 20.7493 11.6667H24.2494C27.166 11.6667 28.3327 12.8334 28.3327 15.75Z" stroke="white" stroke-width="1.5" stroke-linecap="round" stroke-linejoin="round"/>
</svg>
