<svg width="24" height="24" viewBox="0 0 24 24" fill="none" xmlns="http://www.w3.org/2000/svg">
<path d="M12.1651 11.9999L2.58456 21.3431L2.5845 21.3431C2.55823 21.369 2.5249 21.3866 2.48868 21.3936C2.45247 21.4007 2.41498 21.3969 2.38093 21.3827C2.34687 21.3685 2.31777 21.3446 2.29725 21.3139C2.27674 21.2832 2.26574 21.2472 2.26562 21.2103L2.26562 2.78851C2.26574 2.75163 2.27675 2.7156 2.29725 2.68495C2.31777 2.65429 2.34687 2.63036 2.38093 2.61618C2.41498 2.60199 2.45247 2.59818 2.48868 2.60521C2.5249 2.61224 2.55823 2.62981 2.5845 2.65571L2.58456 2.65577L12.1651 11.9999ZM4.17465 1.54358L16.1832 8.15956L13.3683 10.85L3.95114 1.84535C3.95114 1.84535 3.95113 1.84534 3.95113 1.84534C3.87282 1.77004 3.87868 1.66803 3.92894 1.59679C3.97914 1.52564 4.07184 1.48761 4.16723 1.53941L4.17453 1.54351L4.17465 1.54358ZM4.17558 22.4562L4.17546 22.4563L4.1682 22.4604C4.16817 22.4604 4.16814 22.4604 4.16812 22.4604C4.07225 22.5122 3.97934 22.4741 3.92917 22.403C3.87894 22.3318 3.87327 22.2298 3.95205 22.1545L13.3683 13.1489L16.1832 15.8402L4.17558 22.4562ZM14.5707 11.9999L17.7086 8.99755L21.0571 10.8417C21.96 11.3406 21.96 12.6592 21.0572 13.1581C21.0571 13.1581 21.0571 13.1581 21.0571 13.1581L17.7086 15.0008L14.5707 11.9999Z" fill="white" stroke="white" stroke-width="0.03125"/>
</svg>
