<svg width="25" height="24" viewBox="0 0 25 24" fill="none" xmlns="http://www.w3.org/2000/svg">
<path d="M12.9747 12L3.39413 21.3432L3.39407 21.3433C3.3678 21.3692 3.33447 21.3867 3.29825 21.3938C3.26204 21.4008 3.22455 21.397 3.1905 21.3828C3.15644 21.3686 3.12734 21.3447 3.10682 21.314C3.08631 21.2834 3.07531 21.2473 3.0752 21.2104L3.0752 2.78864C3.07531 2.75175 3.08632 2.71573 3.10682 2.68507C3.12734 2.65441 3.15644 2.63048 3.1905 2.6163C3.22455 2.60211 3.26204 2.5983 3.29825 2.60533C3.33447 2.61236 3.3678 2.62993 3.39407 2.65583L3.39413 2.65589L12.9747 12ZM4.98422 1.5437L16.9928 8.15968L14.1779 10.8501L4.76071 1.84547C4.76071 1.84547 4.7607 1.84546 4.7607 1.84546C4.68239 1.77017 4.68825 1.66816 4.73851 1.59692C4.78871 1.52576 4.88141 1.48774 4.9768 1.53953L4.9841 1.54364L4.98422 1.5437ZM4.98515 22.4563L4.98503 22.4564L4.97777 22.4605C4.97774 22.4605 4.97771 22.4605 4.97769 22.4605C4.88182 22.5123 4.78891 22.4742 4.73874 22.4031C4.68851 22.3319 4.68284 22.2299 4.76162 22.1546L14.1779 13.149L16.9928 15.8404L4.98515 22.4563ZM15.3803 12L18.5182 8.99768L21.8667 10.8418C22.7695 11.3407 22.7695 12.6593 21.8667 13.1582C21.8667 13.1582 21.8667 13.1582 21.8667 13.1582L18.5182 15.001L15.3803 12Z" fill="#191B18" stroke="#191B18" stroke-width="0.03125"/>
</svg>
