<svg width="24" height="24" viewBox="0 0 24 24" fill="none" xmlns="http://www.w3.org/2000/svg">
<path d="M8.31056 6.04121C6.33262 6.07009 4.51012 7.19078 3.4905 8.96078C1.43794 12.525 2.96662 17.8052 4.96687 20.6972L8.31056 6.04121ZM8.31056 6.04121C9.16359 6.02495 9.9895 6.3525 10.7124 6.63922C11.2646 6.85819 11.7566 7.05334 12.1549 7.05334C12.5118 7.05334 12.9904 6.86456 13.5486 6.64439C14.4277 6.29761 15.5043 5.87295 16.614 5.98534L8.31056 6.04121ZM18.2947 12.729V12.729C18.3112 14.5118 19.094 15.7016 19.8769 16.4465C20.2679 16.8186 20.6589 17.0797 20.9544 17.2488C21.1021 17.3333 21.2262 17.395 21.3145 17.436C21.3513 17.4531 21.383 17.4671 21.4072 17.4775C21.313 17.7806 20.8402 19.2285 19.82 20.7192L19.8716 20.7545L19.82 20.7192C19.334 21.4296 18.843 22.132 18.2771 22.6611C17.7125 23.189 17.0778 23.54 16.3046 23.5544C15.5565 23.5681 15.0578 23.3523 14.528 23.1231L14.4922 23.1077C13.947 22.872 13.3661 22.6293 12.4612 22.6293C11.5575 22.6293 10.9634 22.8569 10.4139 23.0892C10.3752 23.1056 10.3368 23.122 10.2985 23.1383C9.794 23.353 9.31628 23.5564 8.64242 23.5829C7.90024 23.6111 7.24107 23.2399 6.64112 22.6776C6.04106 22.1151 5.5081 21.3689 5.01828 20.6616C4.02331 19.2231 3.14451 17.1884 2.77043 15.0702C2.39626 12.9514 2.52831 10.7568 3.54466 8.99197C4.55402 7.23979 6.35699 6.13224 8.31147 6.10371L8.31175 6.1037C9.0505 6.08962 9.77144 6.3382 10.4293 6.59475C10.5166 6.62879 10.6029 6.66302 10.688 6.69678C10.9219 6.78953 11.1467 6.87869 11.3577 6.95034C11.6453 7.04804 11.9144 7.11584 12.1549 7.11584C12.3964 7.11584 12.6856 7.03407 13.0053 6.91946C13.182 6.85612 13.373 6.7808 13.5733 6.70182C13.734 6.63844 13.9007 6.57272 14.0707 6.50895C14.8423 6.21954 15.7158 5.95719 16.6077 6.04752L16.6077 6.04763L16.6114 6.04779C17.3571 6.07889 19.4321 6.3469 20.7855 8.27743C20.3992 8.51932 18.2698 9.95327 18.2947 12.729ZM15.3778 4.03247L15.3778 4.03248C14.5837 4.99406 13.291 5.73855 12.026 5.6627C11.8742 4.36505 12.5163 3.01151 13.2535 2.15942L13.2537 2.15913C14.0708 1.2029 15.4398 0.486319 16.5815 0.418404C16.7068 1.74244 16.1713 3.07201 15.3778 4.03247Z" fill="white" stroke="white" stroke-width="0.125"/>
</svg>
