<svg width="25" height="24" viewBox="0 0 25 24" fill="none" xmlns="http://www.w3.org/2000/svg">
<path d="M9.12013 6.04121C7.14219 6.07009 5.31969 7.19078 4.30007 8.96078C2.24751 12.525 3.77619 17.8052 5.77644 20.6972L9.12013 6.04121ZM9.12013 6.04121C9.97316 6.02495 10.7991 6.3525 11.522 6.63922C12.0741 6.85819 12.5662 7.05334 12.9644 7.05334C13.3214 7.05334 13.8 6.86456 14.3581 6.64439C15.2373 6.29761 16.3139 5.87295 17.4236 5.98534L9.12013 6.04121ZM19.1043 12.729V12.729C19.1208 14.5118 19.9036 15.7016 20.6864 16.4465C21.0775 16.8186 21.4685 17.0797 21.7639 17.2488C21.9117 17.3333 22.0357 17.395 22.1241 17.436C22.1609 17.4531 22.1926 17.4671 22.2167 17.4775C22.1226 17.7806 21.6498 19.2285 20.6296 20.7192L20.6812 20.7545L20.6296 20.7192C20.1436 21.4296 19.6526 22.132 19.0867 22.6611C18.522 23.189 17.8874 23.54 17.1142 23.5544C16.3661 23.5681 15.8674 23.3523 15.3376 23.1231L15.3018 23.1077C14.7566 22.872 14.1757 22.6293 13.2708 22.6293C12.3671 22.6293 11.773 22.8569 11.2235 23.0892C11.1848 23.1056 11.1463 23.122 11.108 23.1383C10.6036 23.353 10.1259 23.5564 9.45199 23.5829C8.70981 23.6111 8.05064 23.2399 7.45069 22.6776C6.85063 22.1151 6.31767 21.3689 5.82785 20.6616C4.83288 19.2231 3.95408 17.1884 3.58 15.0702C3.20583 12.9514 3.33788 10.7568 4.35423 8.99197C5.36359 7.23979 7.16656 6.13224 9.12104 6.10371L9.12132 6.1037C9.86007 6.08962 10.581 6.3382 11.2389 6.59475C11.3262 6.62879 11.4125 6.66302 11.4976 6.69678C11.7315 6.78953 11.9563 6.87869 12.1672 6.95034C12.4549 7.04804 12.724 7.11584 12.9644 7.11584C13.206 7.11584 13.4951 7.03407 13.8149 6.91946C13.9916 6.85612 14.1826 6.7808 14.3829 6.70182C14.5436 6.63844 14.7103 6.57272 14.8803 6.50895C15.6519 6.21954 16.5254 5.95719 17.4173 6.04752L17.4173 6.04763L17.421 6.04779C18.1667 6.07889 20.2417 6.3469 21.595 8.27743C21.2088 8.51932 19.0794 9.95327 19.1043 12.729ZM16.1874 4.03247L16.1874 4.03248C15.3933 4.99406 14.1005 5.73855 12.8356 5.6627C12.6838 4.36505 13.3259 3.01151 14.063 2.15942L14.0633 2.15913C14.8803 1.2029 16.2494 0.486319 17.391 0.418404C17.5163 1.74244 16.9808 3.07201 16.1874 4.03247Z" fill="#191B18" stroke="#191B18" stroke-width="0.125"/>
</svg>
