<svg width="1440" height="1605" viewBox="0 0 1440 1605" fill="none" xmlns="http://www.w3.org/2000/svg">
<path d="M667.839 499.911L822.936 410.366L1093.91 547.094L1078.84 850.362L922.339 940.718L951.286 629.435L667.839 499.911Z" fill="#CEE9C8"/>
<path d="M-481.408 1163.43L-334.474 1078.6L-71.0845 1219.7L-78.645 1518.64L-226.908 1604.24L-206.197 1297.71L-481.408 1163.43Z" fill="#CEE9C8"/>
<path d="M384.463 663.518L531.396 578.686L794.786 719.79L787.226 1018.72L638.963 1104.32L659.673 797.798L384.463 663.518Z" fill="#CEE9C8"/>
<path d="M966.958 327.214L1113.89 242.382L1377.25 383.439L1369.72 682.421L1221.46 768.021L1242.14 461.447L966.958 327.214Z" fill="#CEE9C8"/>
<path d="M-182.29 990.733L-35.3559 905.9L228.006 1046.96L220.473 1345.94L72.2102 1431.54L92.8937 1124.97L-182.29 990.733Z" fill="#CEE9C8"/>
<path d="M1250.33 163.607L1397.29 78.7606L1660.63 219.832L1653.07 518.827L1504.83 604.414L1525.49 297.853L1250.33 163.607Z" fill="#CEE9C8"/>
<path d="M101.086 827.126L248.045 742.279L511.382 883.351L503.827 1182.35L355.586 1267.93L376.247 961.371L101.086 827.126Z" fill="#CEE9C8"/>
</svg>
