<svg width="1440" height="3361" viewBox="0 0 1440 3361" fill="none" xmlns="http://www.w3.org/2000/svg">
<path d="M928.304 714.56L1079.21 810.994L1082.63 1114.49L806.501 1240.77L654.226 1143.47L943.866 1025.81L928.304 714.56Z" fill="#CEE9C8"/>
<path d="M-189.922 0.000108152L-46.9544 91.3583L-50.9088 390.138L-319.739 521.093L-464 428.908L-182.374 306.129L-189.922 0.000108152Z" fill="#CEE9C8"/>
<path d="M652.577 538.368L795.544 629.726L791.59 928.505L522.76 1059.46L378.499 967.276L660.124 844.497L652.577 538.368Z" fill="#CEE9C8"/>
<path d="M1219.35 900.542L1362.32 991.901L1358.39 1290.63L1089.53 1421.64L945.271 1329.45L1226.93 1206.63L1219.35 900.542Z" fill="#CEE9C8"/>
<path d="M101.122 185.981L244.09 277.339L240.165 576.072L-28.6947 707.074L-172.956 614.889L108.699 492.064L101.122 185.981Z" fill="#CEE9C8"/>
<path d="M1495.07 1076.74L1638.07 1168.11L1634.12 1466.83L1365.24 1597.81L1221 1505.64L1502.63 1382.8L1495.07 1076.74Z" fill="#CEE9C8"/>
<path d="M376.849 362.174L519.841 453.548L515.892 752.266L247.01 883.253L102.771 791.082L384.404 668.243L376.849 362.174Z" fill="#CEE9C8"/>
<path d="M667.839 2255.91L822.936 2166.37L1093.91 2303.09L1078.84 2606.36L922.339 2696.72L951.286 2385.44L667.839 2255.91Z" fill="#CEE9C8"/>
<path d="M-481.408 2919.43L-334.474 2834.6L-71.0845 2975.7L-78.645 3274.64L-226.908 3360.24L-206.197 3053.71L-481.408 2919.43Z" fill="#CEE9C8"/>
<path d="M384.463 2419.52L531.396 2334.69L794.786 2475.79L787.226 2774.72L638.963 2860.32L659.673 2553.8L384.463 2419.52Z" fill="#CEE9C8"/>
<path d="M966.958 2083.21L1113.89 1998.38L1377.25 2139.44L1369.72 2438.42L1221.46 2524.02L1242.14 2217.45L966.958 2083.21Z" fill="#CEE9C8"/>
<path d="M-182.29 2746.73L-35.3559 2661.9L228.006 2802.96L220.473 3101.94L72.2102 3187.54L92.8937 2880.97L-182.29 2746.73Z" fill="#CEE9C8"/>
<path d="M1250.33 1919.61L1397.29 1834.76L1660.63 1975.83L1653.07 2274.83L1504.83 2360.41L1525.49 2053.85L1250.33 1919.61Z" fill="#CEE9C8"/>
<path d="M101.086 2583.13L248.045 2498.28L511.382 2639.35L503.827 2938.35L355.586 3023.93L376.247 2717.37L101.086 2583.13Z" fill="#CEE9C8"/>
</svg>
