<svg width="1440" height="1682" viewBox="0 0 1440 1682" fill="none" xmlns="http://www.w3.org/2000/svg">
<path d="M928.304 714.56L1079.21 810.994L1082.63 1114.49L806.501 1240.77L654.226 1143.47L943.866 1025.81L928.304 714.56Z" fill="#CEE9C8"/>
<path d="M-189.922 0.000108152L-46.9544 91.3583L-50.9088 390.138L-319.739 521.093L-464 428.908L-182.374 306.129L-189.922 0.000108152Z" fill="#CEE9C8"/>
<path d="M652.577 538.368L795.544 629.726L791.59 928.505L522.76 1059.46L378.499 967.276L660.124 844.497L652.577 538.368Z" fill="#CEE9C8"/>
<path d="M1219.35 900.542L1362.32 991.901L1358.39 1290.63L1089.53 1421.64L945.271 1329.45L1226.93 1206.63L1219.35 900.542Z" fill="#CEE9C8"/>
<path d="M101.122 185.981L244.09 277.339L240.165 576.072L-28.6947 707.074L-172.956 614.889L108.699 492.064L101.122 185.981Z" fill="#CEE9C8"/>
<path d="M1495.07 1076.74L1638.07 1168.11L1634.12 1466.83L1365.24 1597.81L1221 1505.64L1502.63 1382.8L1495.07 1076.74Z" fill="#CEE9C8"/>
<path d="M376.849 362.174L519.841 453.548L515.892 752.266L247.01 883.253L102.771 791.082L384.404 668.243L376.849 362.174Z" fill="#CEE9C8"/>
</svg>
