<svg width="59" height="70" viewBox="0 0 59 70" fill="none" xmlns="http://www.w3.org/2000/svg">
<circle cx="29.8608" cy="19.0555" r="13.3194" stroke="#59B547" stroke-width="2.91667"/>
<path d="M25.3882 17.3056C25.3882 16.4464 26.0846 15.75 26.9437 15.75H33.166C34.0251 15.75 34.7215 16.4464 34.7215 17.3056V19.8564C34.7215 20.5367 34.2794 21.1382 33.6299 21.3411L30.5188 22.3133C30.2167 22.4078 29.893 22.4078 29.5909 22.3133L26.4798 21.3411C25.8304 21.1382 25.3882 20.5367 25.3882 19.8564V17.3056Z" fill="#59B547"/>
<rect x="28.3052" y="20.2222" width="3.5" height="12.4444" fill="#59B547"/>
<rect x="43.4717" y="16.7222" width="3.5" height="12.4444" transform="rotate(90 43.4717 16.7222)" fill="#59B547"/>
<rect x="28.1108" y="16.7222" width="3.5" height="12.4444" transform="rotate(90 28.1108 16.7222)" fill="#59B547"/>
<rect x="7.69434" y="41.6111" width="13.8056" height="24.3056" rx="1.55556" fill="#59B547"/>
<rect x="8.6665" y="43.5555" width="11.8611" height="2.91667" rx="0.777778" fill="#8CCD7F"/>
<rect x="8.6665" y="47.4445" width="10.1111" height="0.972222" rx="0.194444" fill="#8CCD7F"/>
<rect x="8.6665" y="63" width="10.1111" height="0.972222" rx="0.194444" fill="#8CCD7F"/>
<rect x="8.6665" y="47.25" width="10.1111" height="0.972222" rx="0.194444" fill="#8CCD7F"/>
<rect x="8.6665" y="50.9445" width="10.1111" height="0.972222" rx="0.194444" fill="#8CCD7F"/>
<rect x="8.6665" y="52.3055" width="11.2778" height="0.583333" rx="0.194444" fill="#8CCD7F"/>
<rect x="8.6665" y="53.0833" width="11.8611" height="0.583333" rx="0.194444" fill="#8CCD7F"/>
<rect x="8.6665" y="53.8611" width="10.6944" height="0.583333" rx="0.194444" fill="#8CCD7F"/>
<rect x="10.2222" y="48.6111" width="9.72222" height="0.972222" rx="0.194444" fill="#8CCD7F"/>
<rect x="8.6665" y="48.6111" width="1.16667" height="0.972222" rx="0.194444" fill="#8CCD7F"/>
<rect x="22.8613" y="41.6111" width="13.8056" height="24.3056" rx="1.55556" fill="#EDD32B"/>
<rect x="23.8335" y="43.5555" width="11.8611" height="16.3333" rx="0.777778" fill="#F1DD5A"/>
<rect x="23.8335" y="60.6667" width="11.8611" height="1.55556" rx="0.388889" fill="#F1DD5A"/>
<rect x="23.8335" y="62.4167" width="7.19444" height="0.972222" rx="0.388889" fill="#F1DD5A"/>
<rect x="38.0278" y="41.6111" width="13.8056" height="24.3056" rx="1.55556" fill="#ED7C2B"/>
<rect x="39" y="43.5555" width="11.8611" height="12.4444" rx="0.777778" fill="#F1995A"/>
<rect x="39" y="58.3333" width="11.8611" height="1.55556" rx="0.388889" fill="#F1995A"/>
<rect x="39" y="60.0833" width="7.19444" height="0.972222" rx="0.388889" fill="#F1995A"/>
</svg>
