<svg width="40" height="40" viewBox="0 0 40 40" fill="none" xmlns="http://www.w3.org/2000/svg">
<rect x="0.25" y="0.25" width="39.5" height="39.5" rx="19.75" fill="#323630"/>
<rect x="0.25" y="0.25" width="39.5" height="39.5" rx="19.75" stroke="#646C60" stroke-width="0.5"/>
<path d="M28.3334 19.9998C28.3334 15.3998 24.6001 11.6665 20.0001 11.6665C15.4001 11.6665 11.6667 15.3998 11.6667 19.9998C11.6667 24.0332 14.5334 27.3915 18.3334 28.1665V22.4998H16.6667V19.9998H18.3334V17.9165C18.3334 16.3082 19.6417 14.9998 21.2501 14.9998H23.3334V17.4998H21.6667C21.2084 17.4998 20.8334 17.8748 20.8334 18.3332V19.9998H23.3334V22.4998H20.8334V28.2915C25.0417 27.8748 28.3334 24.3248 28.3334 19.9998Z" fill="white"/>
</svg>
