<svg width="32" height="32" viewBox="0 0 32 32" fill="none" xmlns="http://www.w3.org/2000/svg">
<g clip-path="url(#clip0_12_14707)">
<rect width="32" height="32" rx="16" fill="#59B547"/>
<rect x="0.666656" y="0.666504" width="30.6667" height="30.6667" rx="15.3333" fill="white"/>
<g clip-path="url(#clip1_12_14707)">
<path d="M5.61049 16.2056H6.48626C6.7429 16.2056 6.93936 16.1477 7.07515 16.0319C7.21111 15.916 7.27901 15.7494 7.27901 15.5318C7.27901 15.3142 7.21111 15.1417 7.07515 15.0282C6.93919 14.9147 6.7429 14.8581 6.48626 14.8581H5.60293L5.88981 14.6099V18.5744H4.66666V13.7446H6.55416C6.94675 13.7446 7.29151 13.8155 7.58858 13.9574C7.88549 14.0992 8.11714 14.3026 8.28318 14.5674C8.44923 14.8323 8.53242 15.1538 8.53242 15.532C8.53242 15.9102 8.44939 16.2388 8.28318 16.5036C8.11714 16.7685 7.88549 16.9717 7.58858 17.1136C7.29151 17.2556 6.94675 17.3264 6.55416 17.3264H5.61049V16.2059V16.2056Z" fill="#191B18"/>
<path d="M9.83098 15.0994L10.1481 16.071V18.5746H8.92496V15.0994H9.83098ZM9.86123 16.7448L9.66493 16.6668V15.7591L9.74039 15.6811C9.80073 15.596 9.89016 15.5015 10.0084 15.3974C10.1266 15.2935 10.2625 15.2024 10.4161 15.1244C10.5696 15.0464 10.7294 15.0073 10.8955 15.0073C10.9759 15.0073 11.049 15.0133 11.1145 15.0251C11.1799 15.037 11.2302 15.0547 11.2656 15.0782V16.1279H11.0163C10.7041 16.1279 10.4513 16.1763 10.2576 16.2733C10.0638 16.3703 9.93159 16.5275 9.86123 16.745V16.7448Z" fill="#191B18"/>
<path d="M13.2363 18.6665C12.8538 18.6665 12.5153 18.5885 12.2208 18.4324C11.9264 18.2764 11.696 18.0613 11.53 17.787C11.3639 17.5129 11.2808 17.1983 11.2808 16.8438C11.2808 16.4892 11.3638 16.1677 11.53 15.8934C11.696 15.6193 11.9264 15.4029 12.2208 15.2445C12.5153 15.0862 12.8538 15.0068 13.2363 15.0068C13.6189 15.0068 13.9725 15.0861 14.267 15.2445C14.5614 15.4029 14.7904 15.6193 14.954 15.8934C15.1176 16.1677 15.1995 16.4846 15.1995 16.8438C15.1995 17.203 15.1176 17.5129 14.954 17.787C14.7904 18.0613 14.5614 18.2764 14.267 18.4324C13.9725 18.5883 13.6289 18.6665 13.2363 18.6665ZM13.2363 17.5459C13.4478 17.5459 13.6214 17.4809 13.7573 17.3509C13.8933 17.2209 13.9612 17.0495 13.9612 16.8367C13.9612 16.6239 13.8933 16.4526 13.7573 16.3224C13.6214 16.1924 13.4478 16.1274 13.2363 16.1274C13.0249 16.1274 12.8589 16.1924 12.7229 16.3224C12.5869 16.4524 12.519 16.6215 12.519 16.8296C12.519 17.0376 12.5869 17.215 12.7229 17.3474C12.8589 17.4798 13.0298 17.5459 13.2363 17.5459Z" fill="#191B18"/>
<path d="M19.1566 18.6663C18.8948 18.6663 18.6632 18.6178 18.462 18.5208C18.2606 18.424 18.1034 18.2867 17.9901 18.1094C17.8769 17.9321 17.8203 17.73 17.8203 17.503C17.8203 17.2571 17.882 17.048 18.0053 16.8754C18.1286 16.7029 18.2921 16.5704 18.496 16.4782C18.6999 16.386 18.9251 16.3398 19.1717 16.3398C19.539 16.3398 19.8385 16.4191 20.0702 16.5773C20.3016 16.7358 20.4526 16.9687 20.5233 17.276L20.0249 17.1696V16.3823C20.0249 16.2642 19.9796 16.1624 19.889 16.0773C19.7984 15.9922 19.6573 15.9496 19.4661 15.9496C19.3302 15.9496 19.1742 15.9663 18.9981 15.9992C18.8219 16.0324 18.6357 16.0938 18.4395 16.1836L18.0921 15.368C18.3135 15.2641 18.5577 15.1778 18.8245 15.1092C19.0911 15.0408 19.3682 15.0063 19.655 15.0063C20.0024 15.0063 20.2956 15.0655 20.5346 15.1836C20.7736 15.3019 20.9537 15.4686 21.0745 15.6837C21.1953 15.8989 21.2557 16.153 21.2557 16.4461V18.5738H20.2288L19.9947 17.8858L20.5233 17.7298C20.4478 18.0183 20.2979 18.2464 20.0739 18.4143C19.8499 18.582 19.5441 18.666 19.1566 18.666V18.6663ZM19.5719 17.8861C19.7127 17.8861 19.826 17.8506 19.9117 17.7797C19.9972 17.7088 20.0401 17.6166 20.0401 17.5031C20.0401 17.3896 19.9973 17.3045 19.9117 17.2337C19.826 17.1628 19.7127 17.1273 19.5719 17.1273C19.4209 17.1273 19.3039 17.1628 19.2207 17.2337C19.1375 17.3045 19.0961 17.3944 19.0961 17.5031C19.0961 17.6119 19.1377 17.7088 19.2207 17.7797C19.3037 17.8506 19.4208 17.8861 19.5719 17.8861Z" fill="#191B18"/>
<path d="M24.2378 18.5744L23.4526 17.397H23.7395L22.9467 18.5744H21.6028L23.0146 16.6737L23.0373 17.0069L21.6254 15.0991H22.977L23.7546 16.2765H23.4299L24.2075 15.0991H25.5591L24.1472 17.0069L24.1775 16.6737L25.5893 18.5744H24.2378Z" fill="#191B18"/>
<path d="M25.9214 13.9997C25.9214 13.7964 25.9869 13.6345 26.1177 13.5138C26.2486 13.3932 26.4197 13.333 26.6311 13.333C26.8426 13.333 27.0186 13.3932 27.1446 13.5138C27.2703 13.6345 27.3333 13.7964 27.3333 13.9997C27.3333 14.2029 27.2703 14.3507 27.1446 14.4713C27.0186 14.5919 26.8475 14.6521 26.6311 14.6521C26.4148 14.6521 26.2486 14.5919 26.1177 14.4713C25.9869 14.3507 25.9214 14.1936 25.9214 13.9997ZM27.2427 18.5741H26.012V15.0989H27.2427V18.574V18.5741Z" fill="#191B18"/>
<path d="M16.5845 14.8462H15.8232V15.5515V16.2567H16.5845H17.3459V15.5515V14.8462H16.5845Z" fill="#59B547"/>
<path d="M18.595 13.9253H14.3592V15.0387H18.595V13.9253Z" fill="#59B547"/>
<path d="M15.825 18.5844V18.1064L16.5845 17.6626L17.3476 18.1021V18.5844L16.5845 18.1021L15.825 18.5844Z" fill="#59B547"/>
<path d="M15.8232 17.663V17.185L16.5826 16.7412L17.3459 17.1807V17.663L16.5826 17.1807L15.8232 17.663Z" fill="#59B547"/>
<path d="M15.8232 16.741V16.263L16.5826 15.8193L17.3459 16.2588V16.741L16.5826 16.2588L15.8232 16.741Z" fill="#59B547"/>
</g>
</g>
<defs>
<clipPath id="clip0_12_14707">
<rect width="32" height="32" rx="16" fill="white"/>
</clipPath>
<clipPath id="clip1_12_14707">
<rect width="22.6667" height="5.33333" fill="white" transform="translate(4.66666 13.333)"/>
</clipPath>
</defs>
</svg>
