<svg width="32" height="32" viewBox="0 0 32 32" fill="none" xmlns="http://www.w3.org/2000/svg">
<g clip-path="url(#clip0_12_14726)">
<rect width="32" height="32" rx="16" fill="#59B547"/>
<rect x="0.666656" y="0.666504" width="30.6667" height="30.6667" rx="15.3333" fill="white"/>
<path d="M15.9272 11.5576H12.9871V14.2812V17.0049H15.9272H18.8674V14.2812V11.5576H15.9272Z" fill="#59B547"/>
<path d="M23.6912 8H7.33331V12.2998H23.6912V8Z" fill="#59B547"/>
<path d="M12.9939 25.9923V24.1466L15.9271 22.4326L18.8742 24.1299V25.9923L15.9271 24.1299L12.9939 25.9923Z" fill="#59B547"/>
<path d="M12.9871 22.4347V20.589L15.9196 18.875L18.8674 20.5723V22.4347L15.9196 20.5723L12.9871 22.4347Z" fill="#59B547"/>
<path d="M12.9871 18.8746V17.0288L15.9196 15.3154L18.8674 17.0127V18.8746L15.9196 17.0127L12.9871 18.8746Z" fill="#59B547"/>
</g>
<defs>
<clipPath id="clip0_12_14726">
<rect width="32" height="32" rx="16" fill="white"/>
</clipPath>
</defs>
</svg>
