<svg width="127" height="153" viewBox="0 0 127 153" fill="none" xmlns="http://www.w3.org/2000/svg">
<path d="M63.5 134.767C62.8969 134.767 62.2605 134.712 61.5908 134.602C60.9211 134.492 60.3002 134.327 59.7281 134.107C46.6318 129.156 36.2253 120.759 28.5085 108.917C20.7917 97.0753 16.9333 84.2562 16.9333 70.4602V42.1883C16.9333 39.944 17.5875 37.9131 18.8958 36.0956C20.2041 34.2781 21.8783 32.9579 23.9184 32.135L59.7414 18.9331C61.0364 18.4666 62.2893 18.2334 63.5 18.2334C64.7107 18.2334 65.9658 18.4666 67.2653 18.9331L103.082 32.135C105.122 32.9579 106.796 34.2781 108.104 36.0956C109.413 37.9131 110.067 39.944 110.067 42.1883V70.4602C110.067 84.2562 106.208 97.0753 98.4915 108.917C90.7748 120.759 80.3682 129.156 67.2719 134.107C66.6954 134.327 66.0745 134.492 65.4092 134.602C64.744 134.712 64.1076 134.767 63.5 134.767Z" fill="#2B82ED"/>
<path d="M63.5 125.055C62.9956 125.055 62.4633 125.01 61.9032 124.918C61.3431 124.826 60.8238 124.689 60.3453 124.505C49.392 120.38 40.6884 113.383 34.2344 103.514C27.7804 93.6459 24.5533 82.9633 24.5533 71.4667V47.9067C24.5533 46.0365 25.1005 44.3441 26.1947 42.8295C27.2889 41.3149 28.6891 40.2148 30.3953 39.529L60.3565 28.5274C61.4395 28.1387 62.4874 27.9443 63.5 27.9443C64.5126 27.9443 65.5623 28.1387 66.6491 28.5274L96.6047 39.529C98.3109 40.2148 99.7111 41.3149 100.805 42.8295C101.9 44.3441 102.447 46.0365 102.447 47.9067V71.4667C102.447 82.9633 99.2197 93.6459 92.7656 103.514C86.3116 113.383 77.608 120.38 66.6547 124.505C66.1725 124.689 65.6532 124.826 65.0968 124.918C64.5404 125.01 64.0082 125.055 63.5 125.055Z" fill="#5A9EF1"/>
</svg>
