<svg width="40" height="40" viewBox="0 0 40 40" fill="none" xmlns="http://www.w3.org/2000/svg">
<rect x="0.25" y="0.25" width="39.5" height="39.5" rx="19.75" fill="#323630"/>
<rect x="0.25" y="0.25" width="39.5" height="39.5" rx="19.75" stroke="#646C60" stroke-width="0.5"/>
<path d="M20.8567 11.6665C21.7942 11.669 22.2701 11.674 22.6809 11.6857L22.8426 11.6915C23.0292 11.6982 23.2134 11.7065 23.4359 11.7165C24.3226 11.7582 24.9276 11.8982 25.4584 12.104C26.0084 12.3157 26.4717 12.6023 26.9351 13.0648C27.359 13.4813 27.6869 13.9852 27.8959 14.5415C28.1017 15.0723 28.2417 15.6773 28.2834 16.5648C28.2934 16.7865 28.3017 16.9707 28.3084 17.1582L28.3134 17.3198C28.3259 17.7298 28.3309 18.2057 28.3326 19.1432L28.3334 19.7648V20.8565C28.3354 21.4643 28.329 22.0722 28.3142 22.6798L28.3092 22.8415C28.3026 23.029 28.2942 23.2132 28.2842 23.4348C28.2426 24.3223 28.1009 24.9265 27.8959 25.4582C27.6869 26.0144 27.359 26.5184 26.9351 26.9348C26.5186 27.3587 26.0147 27.6867 25.4584 27.8957C24.9276 28.1015 24.3226 28.2415 23.4359 28.2832L22.8426 28.3082L22.6809 28.3132C22.2701 28.3248 21.7942 28.3307 20.8567 28.3323L20.2351 28.3332H19.1442C18.5361 28.3353 17.928 28.3289 17.3201 28.314L17.1584 28.309C16.9606 28.3015 16.7628 28.2929 16.5651 28.2832C15.6784 28.2415 15.0734 28.1015 14.5417 27.8957C13.9858 27.6866 13.4821 27.3586 13.0659 26.9348C12.6417 26.5185 12.3135 26.0145 12.1042 25.4582C11.8984 24.9273 11.7584 24.3223 11.7167 23.4348L11.6917 22.8415L11.6876 22.6798C11.6722 22.0722 11.6653 21.4643 11.6667 20.8565V19.1432C11.6644 18.5353 11.6705 17.9275 11.6851 17.3198L11.6909 17.1582C11.6976 16.9707 11.7059 16.7865 11.7159 16.5648C11.7576 15.6773 11.8976 15.0732 12.1034 14.5415C12.3131 13.985 12.6419 13.481 13.0667 13.0648C13.4827 12.6411 13.9861 12.3132 14.5417 12.104C15.0734 11.8982 15.6776 11.7582 16.5651 11.7165C16.7867 11.7065 16.9717 11.6982 17.1584 11.6915L17.3201 11.6865C17.9277 11.6717 18.5356 11.6653 19.1434 11.6673L20.8567 11.6665ZM20.0001 15.8332C18.895 15.8332 17.8352 16.2722 17.0538 17.0536C16.2724 17.835 15.8334 18.8948 15.8334 19.9998C15.8334 21.1049 16.2724 22.1647 17.0538 22.9461C17.8352 23.7275 18.895 24.1665 20.0001 24.1665C21.1051 24.1665 22.1649 23.7275 22.9463 22.9461C23.7277 22.1647 24.1667 21.1049 24.1667 19.9998C24.1667 18.8948 23.7277 17.835 22.9463 17.0536C22.1649 16.2722 21.1051 15.8332 20.0001 15.8332ZM20.0001 17.4998C20.3284 17.4998 20.6535 17.5644 20.9568 17.69C21.2601 17.8156 21.5358 17.9997 21.768 18.2318C22.0001 18.4639 22.1843 18.7395 22.31 19.0427C22.4357 19.346 22.5004 19.6711 22.5005 19.9994C22.5005 20.3277 22.4359 20.6528 22.3103 20.9562C22.1848 21.2595 22.0007 21.5351 21.7685 21.7673C21.5364 21.9995 21.2609 22.1837 20.9576 22.3094C20.6543 22.4351 20.3292 22.4998 20.0009 22.4998C19.3379 22.4998 18.702 22.2364 18.2331 21.7676C17.7643 21.2988 17.5009 20.6629 17.5009 19.9998C17.5009 19.3368 17.7643 18.7009 18.2331 18.2321C18.702 17.7632 19.3379 17.4998 20.0009 17.4998M24.3759 14.5832C24.0996 14.5832 23.8347 14.6929 23.6393 14.8883C23.444 15.0836 23.3342 15.3486 23.3342 15.6248C23.3342 15.9011 23.444 16.1661 23.6393 16.3614C23.8347 16.5568 24.0996 16.6665 24.3759 16.6665C24.6522 16.6665 24.9171 16.5568 25.1125 16.3614C25.3078 16.1661 25.4176 15.9011 25.4176 15.6248C25.4176 15.3486 25.3078 15.0836 25.1125 14.8883C24.9171 14.6929 24.6522 14.5832 24.3759 14.5832Z" fill="white"/>
</svg>
