<svg width="76" height="20" viewBox="0 0 76 20" fill="none" xmlns="http://www.w3.org/2000/svg">
<g clip-path="url(#clip0_6_730)">
<path d="M3.16462 10.7328H6.10104C6.96151 10.7328 7.62023 10.5265 8.07555 10.1139C8.53142 9.70127 8.75908 9.10766 8.75908 8.3325C8.75908 7.55734 8.53142 6.94282 8.07555 6.53846C7.61968 6.1341 6.96151 5.93219 6.10104 5.93219H3.13927L4.10117 5.0481V19.1716H0V1.96561H6.32869C7.64504 1.96561 8.80097 2.21813 9.79704 2.72371C10.7926 3.22875 11.5693 3.9533 12.126 4.89681C12.6827 5.84032 12.9617 6.98573 12.9617 8.33305C12.9617 9.68037 12.6833 10.8511 12.126 11.7946C11.5693 12.7381 10.7926 13.4621 9.79704 13.9677C8.80097 14.4733 7.64504 14.7258 6.32869 14.7258H3.16462V10.7339V10.7328Z" fill="#191B18"/>
<path d="M17.3157 6.79099L18.379 10.2525V19.1716H14.2778V6.79099H17.3157ZM17.4171 12.6528L16.7589 12.375V9.14124L17.0119 8.86341C17.2142 8.56028 17.5141 8.22359 17.9105 7.85278C18.3068 7.48253 18.7627 7.15794 19.2775 6.88012C19.7924 6.60229 20.3282 6.4631 20.8849 6.4631C21.1545 6.4631 21.3998 6.48456 21.6191 6.52637C21.8385 6.56873 22.0072 6.632 22.1257 6.71562V10.455H21.2901C20.2433 10.455 19.3955 10.6277 18.7461 10.9732C18.0962 11.3187 17.653 11.8788 17.4171 12.6534V12.6528Z" fill="#191B18"/>
<path d="M28.7335 19.5C27.4508 19.5 26.3158 19.2222 25.3286 18.666C24.3413 18.1103 23.569 17.344 23.0123 16.3669C22.4556 15.3904 22.1766 14.2697 22.1766 13.0066C22.1766 11.7435 22.455 10.598 23.0123 9.62097C23.569 8.64445 24.3413 7.87369 25.3286 7.30924C26.3158 6.74533 27.4508 6.46255 28.7335 6.46255C30.0163 6.46255 31.202 6.74478 32.1892 7.30924C33.1765 7.87369 33.9443 8.64445 34.4928 9.62097C35.0413 10.598 35.3158 11.7269 35.3158 13.0066C35.3158 14.2862 35.0413 15.3904 34.4928 16.3669C33.9443 17.344 33.1765 18.1103 32.1892 18.666C31.202 19.2216 30.0499 19.5 28.7335 19.5ZM28.7335 15.5081C29.4424 15.5081 30.0245 15.2765 30.4804 14.8133C30.9363 14.3501 31.1639 13.7394 31.1639 12.9813C31.1639 12.2232 30.9363 11.6131 30.4804 11.1493C30.0245 10.6861 29.4424 10.4544 28.7335 10.4544C28.0247 10.4544 27.4679 10.6861 27.012 11.1493C26.5562 11.6125 26.3285 12.2149 26.3285 12.956C26.3285 13.697 26.5562 14.3292 27.012 14.8006C27.4679 15.2727 28.0412 15.5081 28.7335 15.5081Z" fill="#191B18"/>
<path d="M48.5839 19.5C47.7064 19.5 46.9297 19.3272 46.255 18.9818C45.5797 18.6368 45.0527 18.1477 44.6729 17.5162C44.2931 16.8846 44.1035 16.1644 44.1035 15.3557C44.1035 14.4799 44.3102 13.735 44.7237 13.1199C45.1371 12.5054 45.6855 12.0334 46.3691 11.7049C47.0526 11.3765 47.8078 11.212 48.6346 11.212C49.8661 11.212 50.8704 11.4942 51.6471 12.0581C52.4233 12.6226 52.9293 13.4522 53.1663 14.547L51.4955 14.1679V11.3633C51.4955 10.9424 51.3434 10.5799 51.0397 10.2767C50.7359 9.97359 50.263 9.82175 49.6219 9.82175C49.166 9.82175 48.6429 9.88116 48.0525 9.99834C47.4616 10.1166 46.8376 10.3356 46.1795 10.6552L45.0147 7.74988C45.7572 7.37963 46.5758 7.07209 47.4704 6.82783C48.3645 6.58411 49.2934 6.46143 50.2553 6.46143C51.42 6.46143 52.4029 6.67213 53.2044 7.093C54.0058 7.51441 54.6094 8.10803 55.0146 8.87439C55.4198 9.6413 55.6221 10.5463 55.6221 11.5905V19.1705H52.1791L51.3941 16.7195L53.1663 16.1639C52.9133 17.1916 52.4106 18.0041 51.6598 18.6021C50.9085 19.1996 49.8832 19.4989 48.5839 19.4989V19.5ZM49.9763 16.7206C50.4487 16.7206 50.8285 16.5941 51.1157 16.3416C51.4024 16.0891 51.5462 15.7606 51.5462 15.3563C51.5462 14.9519 51.4029 14.6488 51.1157 14.3962C50.8285 14.1437 50.4487 14.0172 49.9763 14.0172C49.4703 14.0172 49.0778 14.1437 48.7989 14.3962C48.52 14.6488 48.3811 14.969 48.3811 15.3563C48.3811 15.7436 48.5205 16.0891 48.7989 16.3416C49.0773 16.5941 49.4698 16.7206 49.9763 16.7206Z" fill="#191B18"/>
<path d="M65.621 19.1715L62.9884 14.9772H63.9502L61.2922 19.1715H56.7859L61.5199 12.4003L61.5959 13.5875L56.862 6.79095H61.3936L64.001 10.9853H62.9123L65.5196 6.79095H70.0513L65.3173 13.5875L65.4187 12.4003L70.1527 19.1715H65.621Z" fill="#191B18"/>
<path d="M71.266 2.875C71.266 2.151 71.4854 1.57389 71.9242 1.14423C72.3629 0.714559 72.9368 0.5 73.6457 0.5C74.3545 0.5 74.9449 0.714559 75.3672 1.14423C75.7888 1.57389 76 2.151 76 2.875C76 3.599 75.7888 4.12549 75.3672 4.55516C74.9449 4.98483 74.3711 5.19939 73.6457 5.19939C72.9202 5.19939 72.3629 4.98483 71.9242 4.55516C71.4854 4.12549 71.266 3.56599 71.266 2.875ZM75.6962 19.1716H71.5697V6.79097H75.6962V19.171V19.1716Z" fill="#191B18"/>
<path d="M39.96 5.89093H37.4072V8.40347V10.916H39.96H42.5127V8.40347V5.89093H39.96Z" fill="#59B547"/>
<path d="M46.7009 2.60928H32.4984V6.57587H46.7009V2.60928Z" fill="#59B547"/>
<path d="M37.4131 19.2079V17.5051L39.9598 15.924L42.5186 17.4897V19.2079L39.9598 17.4897L37.4131 19.2079Z" fill="#59B547"/>
<path d="M37.4072 15.9251V14.2224L39.9534 12.6413L42.5127 14.207V15.9251L39.9534 14.207L37.4072 15.9251Z" fill="#59B547"/>
<path d="M37.4072 12.6413V10.9386L39.9534 9.35797L42.5127 10.9237V12.6413L39.9534 10.9237L37.4072 12.6413Z" fill="#59B547"/>
</g>
<defs>
<clipPath id="clip0_6_730">
<rect width="76" height="19" fill="white" transform="translate(0 0.5)"/>
</clipPath>
</defs>
</svg>
