<svg width="89" height="23" viewBox="0 0 89 23" fill="none" xmlns="http://www.w3.org/2000/svg">
<g clip-path="url(#clip0_6_3356)">
<path d="M3.70594 11.9832H7.14463C8.15229 11.9832 8.92369 11.7416 9.45689 11.2584C9.99074 10.7752 10.2573 10.08 10.2573 9.17228C10.2573 8.26452 9.99074 7.54489 9.45689 7.07136C8.92305 6.59783 8.15229 6.36139 7.14463 6.36139H3.67625L4.80268 5.32607V21.8654H0V1.71631H7.41123C8.95274 1.71631 10.3064 2.01202 11.4729 2.60409C12.6387 3.19552 13.5482 4.044 14.2002 5.1489C14.8522 6.2538 15.1788 7.59514 15.1788 9.17292C15.1788 10.7507 14.8528 12.1217 14.2002 13.2266C13.5482 14.3315 12.6387 15.1793 11.4729 15.7714C10.3064 16.3635 8.95274 16.6592 7.41123 16.6592H3.70594V11.9845V11.9832Z" fill="white"/>
<path d="M20.2776 7.36689L21.5228 11.4205V21.8652H16.7201V7.36689H20.2776ZM20.3963 14.2314L19.6256 13.9061V10.1191L19.9219 9.7938C20.1588 9.43881 20.51 9.04453 20.9741 8.6103C21.4382 8.17672 21.9721 7.7966 22.575 7.47126C23.1779 7.14591 23.8053 6.98291 24.4573 6.98291C24.773 6.98291 25.0602 7.00804 25.3172 7.057C25.5741 7.10661 25.7716 7.1807 25.9104 7.27862V11.6576H24.9318C23.7059 11.6576 22.7131 11.8599 21.9527 12.2645C21.1916 12.6691 20.6726 13.325 20.3963 14.2321V14.2314Z" fill="white"/>
<path d="M33.6485 22.25C32.1463 22.25 30.8172 21.9246 29.6611 21.2733C28.5049 20.6226 27.6006 19.7251 26.9486 18.5809C26.2966 17.4374 25.97 16.125 25.97 14.6458C25.97 13.1666 26.296 11.8253 26.9486 10.6811C27.6006 9.53754 28.5049 8.63494 29.6611 7.97393C30.8172 7.31357 32.1463 6.98242 33.6485 6.98242C35.1506 6.98242 36.5391 7.31292 37.6952 7.97393C38.8514 8.63494 39.7506 9.53754 40.3929 10.6811C41.0352 11.8253 41.3566 13.1473 41.3566 14.6458C41.3566 16.1444 41.0352 17.4374 40.3929 18.5809C39.7506 19.7251 38.8514 20.6226 37.6952 21.2733C36.5391 21.924 35.19 22.25 33.6485 22.25ZM33.6485 17.5753C34.4786 17.5753 35.1603 17.304 35.6941 16.7616C36.228 16.2191 36.4946 15.504 36.4946 14.6162C36.4946 13.7284 36.228 13.0139 35.6941 12.4708C35.1603 11.9284 34.4786 11.6571 33.6485 11.6571C32.8183 11.6571 32.1663 11.9284 31.6325 12.4708C31.0986 13.0133 30.832 13.7188 30.832 14.5866C30.832 15.4544 31.0986 16.1946 31.6325 16.7468C32.1663 17.2995 32.8377 17.5753 33.6485 17.5753Z" fill="white"/>
<path d="M56.8944 22.2498C55.8667 22.2498 54.9572 22.0475 54.1671 21.6429C53.3763 21.239 52.7592 20.6662 52.3144 19.9266C51.8696 19.187 51.6476 18.3437 51.6476 17.3966C51.6476 16.371 51.8897 15.4987 52.3738 14.7784C52.8579 14.0587 53.5002 13.506 54.3007 13.1214C55.1011 12.7367 55.9855 12.5441 56.9538 12.5441C58.3959 12.5441 59.572 12.8746 60.4815 13.535C61.3904 14.196 61.983 15.1675 62.2606 16.4496L60.304 16.0057V12.7213C60.304 12.2284 60.1259 11.8039 59.7702 11.4489C59.4145 11.0939 58.8606 10.9161 58.1099 10.9161C57.5761 10.9161 56.9634 10.9856 56.2721 11.1229C55.5801 11.2614 54.8494 11.5178 54.0786 11.8921L52.7146 8.4898C53.5841 8.05622 54.5427 7.69608 55.5904 7.41003C56.6375 7.12463 57.7252 6.98096 58.8516 6.98096C60.2156 6.98096 61.3666 7.22771 62.3051 7.72056C63.2437 8.21406 63.9506 8.90921 64.425 9.80666C64.8995 10.7048 65.1364 11.7646 65.1364 12.9873V21.8639H61.1045L60.1852 18.9937L62.2606 18.343C61.9643 19.5465 61.3756 20.4981 60.4964 21.1984C59.6165 21.898 58.4159 22.2485 56.8944 22.2485V22.2498ZM58.525 18.995C59.0782 18.995 59.5229 18.8469 59.8593 18.5511C60.1949 18.2554 60.3634 17.8708 60.3634 17.3973C60.3634 16.9237 60.1956 16.5688 59.8593 16.2731C59.5229 15.9773 59.0782 15.8292 58.525 15.8292C57.9324 15.8292 57.4728 15.9773 57.1461 16.2731C56.8195 16.5688 56.6568 16.9437 56.6568 17.3973C56.6568 17.8508 56.8201 18.2554 57.1461 18.5511C57.4721 18.8469 57.9317 18.995 58.525 18.995Z" fill="white"/>
<path d="M76.8457 21.8655L73.7627 16.9537H74.8891L71.7764 21.8655H66.4993L72.043 13.936L72.1321 15.3263L66.5883 7.36719H71.8952L74.9485 12.279H73.6736L76.7269 7.36719H82.0337L76.49 15.3263L76.6088 13.936L82.1525 21.8655H76.8457Z" fill="white"/>
<path d="M83.4562 2.78125C83.4562 1.93341 83.7131 1.25759 84.2269 0.754423C84.7408 0.25126 85.4128 0 86.2429 0C87.073 0 87.7644 0.25126 88.2589 0.754423C88.7527 1.25759 88.9999 1.93341 88.9999 2.78125C88.9999 3.62909 88.7527 4.24564 88.2589 4.74881C87.7644 5.25197 87.0924 5.50323 86.2429 5.50323C85.3934 5.50323 84.7408 5.25197 84.2269 4.74881C83.7131 4.24564 83.4562 3.59043 83.4562 2.78125ZM88.6442 21.8654H83.8119V7.36706H88.6442V21.8647V21.8654Z" fill="white"/>
<path d="M46.7952 6.31299H43.8058V9.2553V12.1976H46.7952H49.7846V9.2553V6.31299H46.7952Z" fill="#59B547"/>
<path d="M54.6892 2.47021H38.0574V7.1153H54.6892V2.47021Z" fill="#59B547"/>
<path d="M43.8127 21.9081V19.9141L46.7951 18.0625L49.7916 19.8961V21.9081L46.7951 19.8961L43.8127 21.9081Z" fill="#59B547"/>
<path d="M43.8058 18.0638V16.0699L46.7875 14.2183L49.7846 16.0518V18.0638L46.7875 16.0518L43.8058 18.0638Z" fill="#59B547"/>
<path d="M43.8058 14.218V12.224L46.7875 10.373L49.7846 12.2066V14.218L46.7875 12.2066L43.8058 14.218Z" fill="#59B547"/>
</g>
<defs>
<clipPath id="clip0_6_3356">
<rect width="89" height="22.25" fill="white"/>
</clipPath>
</defs>
</svg>
