<svg width="59" height="70" viewBox="0 0 59 70" fill="none" xmlns="http://www.w3.org/2000/svg">
<rect x="11.8608" y="4.08344" width="34.7927" height="61.6389" rx="3.65108" fill="#59B547"/>
<rect x="13.7939" y="6.23126" width="30.9268" height="57.3435" rx="2.36247" fill="#6BBE5A"/>
<rect x="24.5327" y="7.7345" width="9.66464" height="1.28862" rx="0.644309" fill="#8CCD7F"/>
<path fill-rule="evenodd" clip-rule="evenodd" d="M23.893 16.941C24.2088 16.5966 24.742 16.5677 25.0931 16.8761L44.7208 34.1124V36.8905L25.2265 20.0878C24.8782 19.7876 24.3552 19.8149 24.04 20.1498L13.7939 31.037V27.9551L23.893 16.941Z" fill="#8CCD7F"/>
<path fill-rule="evenodd" clip-rule="evenodd" d="M25.4847 25.6906C25.475 25.2352 25.8224 24.8515 26.2765 24.8159L30.5295 24.4831L30.3452 22.1278L18.8396 23.0943L18.1802 25.4495L22.2018 25.1348C22.6939 25.0963 23.1172 25.4795 23.1277 25.973L23.3699 37.3568C23.3854 38.0854 23.1153 38.7913 22.6174 39.3235L13.7939 48.7557L13.7939 52.7289L18.8703 47.1566C19.1701 46.8275 19.6717 46.782 20.0259 47.0517L28.8255 53.7529C29.2017 54.0394 29.2757 54.5759 28.9911 54.9535L22.4921 63.5748H25.6063L30.8678 56.4074C31.1521 56.0201 31.6989 55.9413 32.0811 56.2325L41.0702 63.0841C41.4663 63.386 41.9968 63.4442 42.449 63.2356C43.3758 62.8078 43.5068 61.5438 42.6874 60.9351L21.7204 45.3587C21.3164 45.0585 21.2558 44.4769 21.5893 44.0999L24.2386 41.1044C24.5308 40.7741 25.0255 40.7186 25.3836 40.976L44.7208 54.8766V52.4067L34.8539 45.0518C34.4503 44.751 34.3907 44.1693 34.7248 43.7928L43.3479 34.0763L41.5809 32.5082L32.717 42.4959C32.4219 42.8285 31.9217 42.8809 31.5641 42.6167L27.0789 39.3036C26.6733 39.0041 26.6117 38.4212 26.9458 38.0435L36.1545 27.6317L34.3848 26.0666L27.1572 34.2385C26.6391 34.8243 25.6714 34.4695 25.6548 33.6876L25.4847 25.6906Z" fill="#8CCD7F"/>
<path fill-rule="evenodd" clip-rule="evenodd" d="M13.7939 40.2722L23.5899 30.3093L25.2604 31.9798L13.7939 43.7085V40.2722Z" fill="#8CCD7F"/>
<rect x="23.4141" y="45.075" width="3.22155" height="4.9397" rx="1.07385" transform="rotate(-50.3139 23.4141 45.075)" fill="#F1DD5A"/>
<rect x="29.499" y="40.2284" width="2.60868" height="4.9397" rx="1.07385" transform="rotate(-138.706 29.499 40.2284)" fill="#F1DD5A"/>
<rect x="37.4458" y="46.2419" width="2.60868" height="4.9397" rx="1.07385" transform="rotate(-138.706 37.4458 46.2419)" fill="#F1DD5A"/>
<rect x="40.0229" y="48.1749" width="2.60868" height="4.9397" rx="1.07385" transform="rotate(-138.706 40.0229 48.1749)" fill="#F1DD5A"/>
<rect x="41.5264" y="42.5908" width="2.60868" height="4.9397" rx="1.07385" transform="rotate(-138.706 41.5264 42.5908)" fill="#F1DD5A"/>
<rect x="33.1504" y="35.7183" width="2.60868" height="4.9397" rx="1.07385" transform="rotate(-138.706 33.1504 35.7183)" fill="#5A9EF1"/>
<rect x="32.291" y="42.1613" width="2.60868" height="4.9397" rx="1.07385" transform="rotate(-138.707 32.291 42.1613)" fill="#8CCD7F"/>
<rect x="35.9424" y="37.6512" width="2.60868" height="4.9397" rx="1.07385" transform="rotate(-138.706 35.9424 37.6512)" fill="#F15A5D"/>
<rect x="21.6333" y="55.6465" width="6.64055" height="4.9397" rx="1.07385" transform="rotate(-142.413 21.6333 55.6465)" fill="#F15A5D"/>
<path d="M26.2474 57.6277C25.8886 58.0937 25.2217 58.1845 24.7514 57.8312L23.0379 56.5439C22.5598 56.1848 22.4672 55.5042 22.8319 55.0304L24.5348 52.818C24.8936 52.3519 25.5605 52.2612 26.0308 52.6144L27.7443 53.9017C28.2224 54.2609 28.3151 54.9414 27.9503 55.4153L26.2474 57.6277Z" fill="#F1DD5A"/>
<path d="M28.6525 49.12C28.1629 48.7512 28.0808 48.0482 28.4722 47.5765L29.1564 46.752C29.5226 46.3107 30.1709 46.235 30.6289 46.58L42.4425 55.4786C42.932 55.8473 43.0141 56.5504 42.6227 57.0221L41.9385 57.8466C41.5723 58.2879 40.9241 58.3636 40.466 58.0186L28.6525 49.12Z" fill="#F15A5D"/>
</svg>
