<svg width="296" height="59" viewBox="0 0 296 59" fill="none" xmlns="http://www.w3.org/2000/svg">
<path d="M168.813 -1.75002e-06L191.595 -8.42612e-07L212.75 29.4299L191.801 59L168.813 59L191.801 29.4299L168.813 -1.75002e-06Z" fill="#646C60" fill-opacity="0.2"/>
<path d="M7.62939e-06 -1.65791e-06L21.5831 -7.98264e-07L41.625 29.4299L21.7783 59L4.79908e-06 59L21.7783 29.4299L7.62939e-06 -1.65791e-06Z" fill="#646C60" fill-opacity="0.2"/>
<path d="M127.188 -1.65791e-06L148.771 -7.98264e-07L168.812 29.4299L148.966 59L127.188 59L148.966 29.4299L127.188 -1.65791e-06Z" fill="#646C60" fill-opacity="0.2"/>
<path d="M212.75 -1.65791e-06L234.333 -7.98263e-07L254.375 29.4236L234.528 59L212.75 59L234.528 29.4236L212.75 -1.65791e-06Z" fill="#646C60" fill-opacity="0.2"/>
<path d="M43.9375 -1.65791e-06L65.5206 -7.98263e-07L85.5625 29.4236L65.7158 59L43.9375 59L65.7158 29.4236L43.9375 -1.65791e-06Z" fill="#646C60" fill-opacity="0.2"/>
<path d="M254.375 -1.65791e-06L275.962 -7.9812e-07L296 29.4236L276.15 59L254.375 59L276.15 29.4236L254.375 -1.65791e-06Z" fill="#646C60" fill-opacity="0.2"/>
<path d="M85.5625 -1.65791e-06L107.149 -7.9812e-07L127.187 29.4236L107.338 59L85.5625 59L107.338 29.4236L85.5625 -1.65791e-06Z" fill="#646C60" fill-opacity="0.2"/>
</svg>
