<svg width="60" height="60" viewBox="0 0 60 60" fill="none" xmlns="http://www.w3.org/2000/svg">
<rect x="0.25" y="0.25" width="59.5" height="59.5" rx="17.75" fill="#59B547"/>
<rect x="0.25" y="0.25" width="59.5" height="59.5" rx="17.75" stroke="#6BBE5A" stroke-width="0.5"/>
<path d="M30.0001 31.7875C32.154 31.7875 33.9001 30.0415 33.9001 27.8875C33.9001 25.7336 32.154 23.9875 30.0001 23.9875C27.8462 23.9875 26.1001 25.7336 26.1001 27.8875C26.1001 30.0415 27.8462 31.7875 30.0001 31.7875Z" stroke="white" stroke-width="3"/>
<path d="M19.5251 25.6125C21.9876 14.7875 38.0251 14.8 40.4751 25.625C41.9126 31.975 37.9626 37.35 34.5001 40.675C31.9876 43.1 28.0126 43.1 25.4876 40.675C22.0376 37.35 18.0876 31.9625 19.5251 25.6125Z" stroke="white" stroke-width="3"/>
</svg>
