<svg width="60" height="60" viewBox="0 0 60 60" fill="none" xmlns="http://www.w3.org/2000/svg">
<rect x="0.25" y="0.25" width="59.5" height="59.5" rx="17.75" fill="#59B547"/>
<rect x="0.25" y="0.25" width="59.5" height="59.5" rx="17.75" stroke="#6BBE5A" stroke-width="0.5"/>
<path d="M30 39.375C35.1777 39.375 39.375 35.1777 39.375 30C39.375 24.8223 35.1777 20.625 30 20.625C24.8223 20.625 20.625 24.8223 20.625 30C20.625 35.1777 24.8223 39.375 30 39.375Z" stroke="white" stroke-width="3" stroke-linecap="round" stroke-linejoin="round"/>
<path d="M30 33.75C32.0711 33.75 33.75 32.0711 33.75 30C33.75 27.9289 32.0711 26.25 30 26.25C27.9289 26.25 26.25 27.9289 26.25 30C26.25 32.0711 27.9289 33.75 30 33.75Z" stroke="white" stroke-width="3" stroke-linecap="round" stroke-linejoin="round"/>
<path d="M30 20V17.5" stroke="white" stroke-width="3" stroke-linecap="round" stroke-linejoin="round"/>
<path d="M20 30H17.5" stroke="white" stroke-width="3" stroke-linecap="round" stroke-linejoin="round"/>
<path d="M30 40V42.5" stroke="white" stroke-width="3" stroke-linecap="round" stroke-linejoin="round"/>
<path d="M40 30H42.5" stroke="white" stroke-width="3" stroke-linecap="round" stroke-linejoin="round"/>
</svg>
