<svg width="1440" height="962" viewBox="0 0 1440 962" fill="none" xmlns="http://www.w3.org/2000/svg">
<path d="M746.627 85.4272L893.948 23.7326L1118.21 175.299L1070.63 441.881L921.972 504.133L982.745 232.03L746.627 85.4272Z" fill="#EFF8ED"/>
<path d="M-345 542.577L-205.433 484.129L11.6326 638.711L-28.8253 902.307L-169.655 961.283L-116.706 692.456L-345 542.577Z" fill="#EFF8ED"/>
<path d="M477.458 198.149L617.025 139.702L834.09 294.283L793.632 557.879L652.803 616.856L705.752 348.029L477.458 198.149Z" fill="#EFF8ED"/>
<path d="M1030.75 -33.5566L1170.32 -92.0042L1387.36 62.5323L1346.92 326.173L1206.09 385.149L1259.02 116.278L1030.75 -33.5566Z" fill="#EFF8ED"/>
<path d="M-60.8791 423.593L78.688 365.146L295.734 519.682L255.295 783.323L114.466 842.299L167.396 573.427L-60.8791 423.593Z" fill="#EFF8ED"/>
<path d="M1299.92 -146.278L1439.51 -204.736L1656.53 -50.1896L1616.07 213.46L1475.26 272.428L1528.17 3.56471L1299.92 -146.278Z" fill="#EFF8ED"/>
<path d="M208.29 310.871L347.88 252.414L564.903 406.96L524.443 670.61L383.635 729.577L436.543 460.715L208.29 310.871Z" fill="#EFF8ED"/>
</svg>
