<svg width="1440" height="962" viewBox="0 0 1440 962" fill="none" xmlns="http://www.w3.org/2000/svg">
<path d="M652.803 85.4272L505.482 23.7326L281.216 175.299L328.804 441.881L477.458 504.133L416.685 232.03L652.803 85.4272Z" fill="#EFF8ED"/>
<path d="M1744.43 542.577L1604.86 484.129L1387.8 638.711L1428.26 902.307L1569.09 961.283L1516.14 692.456L1744.43 542.577Z" fill="#EFF8ED"/>
<path d="M921.972 198.149L782.405 139.702L565.34 294.283L605.797 557.879L746.627 616.856L693.678 348.029L921.972 198.149Z" fill="#EFF8ED"/>
<path d="M368.681 -33.5566L229.114 -92.0042L12.0674 62.5323L52.5063 326.173L193.336 385.149L140.406 116.278L368.681 -33.5566Z" fill="#EFF8ED"/>
<path d="M1460.31 423.593L1320.74 365.146L1103.7 519.682L1144.13 783.323L1284.96 842.299L1232.03 573.427L1460.31 423.593Z" fill="#EFF8ED"/>
<path d="M99.5129 -146.278L-40.0775 -204.736L-257.101 -50.1896L-216.64 213.46L-75.832 272.428L-128.741 3.56471L99.5129 -146.278Z" fill="#EFF8ED"/>
<path d="M1191.14 310.871L1051.55 252.414L834.526 406.96L874.987 670.61L1015.79 729.577L962.886 460.715L1191.14 310.871Z" fill="#EFF8ED"/>
</svg>
