<svg width="60" height="60" viewBox="0 0 60 60" fill="none" xmlns="http://www.w3.org/2000/svg">
<rect x="0.25" y="0.25" width="59.5" height="59.5" rx="17.75" fill="#59B547"/>
<rect x="0.25" y="0.25" width="59.5" height="59.5" rx="17.75" stroke="#6BBE5A" stroke-width="0.5"/>
<path d="M34.3875 18.5375H25.6125C22.5 18.5375 21.8125 20.0875 21.4125 21.9875L20 28.75H40L38.5875 21.9875C38.1875 20.0875 37.5 18.5375 34.3875 18.5375Z" stroke="white" stroke-width="3" stroke-linecap="round" stroke-linejoin="round"/>
<path d="M42.4879 39.775C42.6254 41.2375 41.4504 42.5 39.9504 42.5H37.6004C36.2504 42.5 36.0629 41.925 35.8254 41.2125L35.5754 40.4625C35.2254 39.4375 35.0004 38.75 33.2004 38.75H26.8004C25.0004 38.75 24.7379 39.525 24.4254 40.4625L24.1754 41.2125C23.9379 41.925 23.7504 42.5 22.4004 42.5H20.0504C18.5504 42.5 17.3754 41.2375 17.5129 39.775L18.2129 32.1625C18.3879 30.2875 18.7504 28.75 22.0254 28.75H37.9754C41.2504 28.75 41.6129 30.2875 41.7879 32.1625L42.4879 39.775Z" stroke="white" stroke-width="3" stroke-linecap="round" stroke-linejoin="round"/>
<path d="M20 25H18.75" stroke="white" stroke-width="3" stroke-linecap="round" stroke-linejoin="round"/>
<path d="M41.25 25H40" stroke="white" stroke-width="3" stroke-linecap="round" stroke-linejoin="round"/>
<path d="M30 18.75V21.25" stroke="white" stroke-width="3" stroke-linecap="round" stroke-linejoin="round"/>
<path d="M28.125 21.25H31.875" stroke="white" stroke-width="3" stroke-linecap="round" stroke-linejoin="round"/>
<path d="M22.5 33.75H26.25" stroke="white" stroke-width="3" stroke-linecap="round" stroke-linejoin="round"/>
<path d="M33.75 33.75H37.5" stroke="white" stroke-width="3" stroke-linecap="round" stroke-linejoin="round"/>
</svg>
