<svg width="83" height="83" viewBox="0 0 83 83" fill="none" xmlns="http://www.w3.org/2000/svg">
<rect x="0.25" y="0.25" width="82.5" height="82.5" rx="41.25" fill="#6BBE5A"/>
<rect x="0.25" y="0.25" width="82.5" height="82.5" rx="41.25" stroke="#8CCD7F" stroke-width="0.5"/>
<path d="M54.7927 49.94C54.7927 50.42 54.686 50.9133 54.4593 51.3933C54.2327 51.8733 53.9394 52.3266 53.5527 52.7533C52.8994 53.4733 52.1793 53.9933 51.366 54.3266C50.566 54.66 49.6994 54.8333 48.766 54.8333C47.406 54.8333 45.9527 54.5133 44.4193 53.86C42.886 53.2066 41.3527 52.3266 39.8327 51.22C38.2993 50.1 36.846 48.86 35.4593 47.4866C34.086 46.1 32.846 44.6466 31.7393 43.1266C30.646 41.6066 29.766 40.0866 29.126 38.58C28.486 37.06 28.166 35.6066 28.166 34.22C28.166 33.3133 28.326 32.4466 28.646 31.6466C28.966 30.8333 29.4727 30.0866 30.1793 29.42C31.0327 28.58 31.966 28.1666 32.9527 28.1666C33.326 28.1666 33.6993 28.2466 34.0327 28.4066C34.3793 28.5666 34.686 28.8066 34.926 29.1533L38.0193 33.5133C38.2593 33.8466 38.4327 34.1533 38.5527 34.4466C38.6727 34.7266 38.7393 35.0066 38.7393 35.26C38.7393 35.58 38.646 35.9 38.4593 36.2066C38.286 36.5133 38.0327 36.8333 37.7127 37.1533L36.6993 38.2066C36.5527 38.3533 36.486 38.5266 36.486 38.74C36.486 38.8466 36.4993 38.94 36.526 39.0466C36.566 39.1533 36.606 39.2333 36.6327 39.3133C36.8727 39.7533 37.286 40.3266 37.8727 41.02C38.4727 41.7133 39.1127 42.42 39.806 43.1266C40.526 43.8333 41.2193 44.4866 41.926 45.0866C42.6193 45.6733 43.1927 46.0733 43.646 46.3133C43.7127 46.34 43.7927 46.38 43.886 46.42C43.9927 46.46 44.0993 46.4733 44.2193 46.4733C44.446 46.4733 44.6193 46.3933 44.766 46.2466L45.7793 45.2466C46.1127 44.9133 46.4327 44.66 46.7393 44.5C47.046 44.3133 47.3527 44.22 47.686 44.22C47.9393 44.22 48.206 44.2733 48.4993 44.3933C48.7927 44.5133 49.0994 44.6866 49.4327 44.9133L53.846 48.0466C54.1927 48.2866 54.4327 48.5666 54.5793 48.9C54.7127 49.2333 54.7927 49.5666 54.7927 49.94Z" stroke="white" stroke-width="3" stroke-miterlimit="10"/>
</svg>
