<svg width="60" height="60" viewBox="0 0 60 60" fill="none" xmlns="http://www.w3.org/2000/svg">
<rect x="0.25" y="0.25" width="59.5" height="59.5" rx="17.75" fill="#59B547"/>
<rect x="0.25" y="0.25" width="59.5" height="59.5" rx="17.75" stroke="#6BBE5A" stroke-width="0.5"/>
<path d="M23.75 26.875L26.875 30L23.75 33.125M35.625 26.875L32.5 30L35.625 33.125" stroke="white" stroke-width="3" stroke-linecap="round" stroke-linejoin="round"/>
<path d="M22.5 21.25H37.5C38.8261 21.25 40.0979 21.7768 41.0355 22.7145C41.9732 23.6521 42.5 24.9239 42.5 26.25V33.75C42.5 35.0761 41.9732 36.3479 41.0355 37.2855C40.0979 38.2232 38.8261 38.75 37.5 38.75H22.5C21.1739 38.75 19.9021 38.2232 18.9645 37.2855C18.0268 36.3479 17.5 35.0761 17.5 33.75V26.25C17.5 24.9239 18.0268 23.6521 18.9645 22.7145C19.9021 21.7768 21.1739 21.25 22.5 21.25Z" stroke="white" stroke-width="3" stroke-linecap="round" stroke-linejoin="round"/>
</svg>
