<svg width="60" height="60" viewBox="0 0 60 60" fill="none" xmlns="http://www.w3.org/2000/svg">
<rect x="0.25" y="0.25" width="59.5" height="59.5" rx="17.75" fill="#59B547"/>
<rect x="0.25" y="0.25" width="59.5" height="59.5" rx="17.75" stroke="#6BBE5A" stroke-width="0.5"/>
<path d="M17.5 27.5C18.475 22.73 22.0875 18.9125 26.7575 17.6125C27.15 17.5037 27.345 17.4488 27.4513 17.565C27.5575 17.6825 27.4788 17.875 27.3238 18.2625L26.25 20.625M32.5 17.5C37.27 18.475 41.0875 22.0875 42.3875 26.7575C42.4962 27.15 42.5512 27.345 42.435 27.4513C42.3175 27.5575 42.125 27.4788 41.7375 27.3238L39.375 26.25M42.5 32.5C41.525 37.27 37.9125 41.0875 33.2425 42.3875C32.85 42.4962 32.655 42.5512 32.5487 42.435C32.4425 42.3175 32.5212 42.125 32.6762 41.7375L33.75 39.375M27.5 42.5C22.73 41.525 18.9125 37.9125 17.6125 33.2425C17.5037 32.85 17.4488 32.655 17.565 32.5487C17.6825 32.4425 17.875 32.5212 18.2625 32.6762L20.625 33.75M25 30.9438C25 28.59 27.1063 26.265 28.585 24.9212C28.9724 24.5696 29.4768 24.3747 30 24.3747C30.5232 24.3747 31.0276 24.5696 31.415 24.9212C32.8937 26.2662 35 28.5912 35 30.945C35 33.2525 33.1062 35.6262 30 35.6262C26.8938 35.6262 25 33.2513 25 30.9438Z" stroke="white" stroke-width="3" stroke-linecap="round" stroke-linejoin="round"/>
</svg>
