<svg width="60" height="60" viewBox="0 0 60 60" fill="none" xmlns="http://www.w3.org/2000/svg">
<rect x="0.25" y="0.25" width="59.5" height="59.5" rx="17.75" fill="#59B547"/>
<rect x="0.25" y="0.25" width="59.5" height="59.5" rx="17.75" stroke="#6BBE5A" stroke-width="0.5"/>
<path d="M27.5 21.25L30 18.75M25 35L35 25M30 41.25L32.5 38.75M35.625 38.75C36.4538 38.75 37.2487 38.4208 37.8347 37.8347C38.4208 37.2487 38.75 36.4538 38.75 35.625C38.75 34.7962 38.4208 34.0013 37.8347 33.4153C37.2487 32.8292 36.4538 32.5 35.625 32.5C34.7962 32.5 34.0013 32.8292 33.4153 33.4153C32.8292 34.0013 32.5 34.7962 32.5 35.625C32.5 36.4538 32.8292 37.2487 33.4153 37.8347C34.0013 38.4208 34.7962 38.75 35.625 38.75ZM24.375 27.5C25.2038 27.5 25.9987 27.1708 26.5847 26.5847C27.1708 25.9987 27.5 25.2038 27.5 24.375C27.5 23.5462 27.1708 22.7513 26.5847 22.1653C25.9987 21.5792 25.2038 21.25 24.375 21.25C23.5462 21.25 22.7513 21.5792 22.1653 22.1653C21.5792 22.7513 21.25 23.5462 21.25 24.375C21.25 25.2038 21.5792 25.9987 22.1653 26.5847C22.7513 27.1708 23.5462 27.5 24.375 27.5ZM21.875 41.25C22.7038 41.25 23.4987 40.9208 24.0847 40.3347C24.6708 39.7487 25 38.9538 25 38.125C25 37.2962 24.6708 36.5013 24.0847 35.9153C23.4987 35.3292 22.7038 35 21.875 35C21.0462 35 20.2513 35.3292 19.6653 35.9153C19.0792 36.5013 18.75 37.2962 18.75 38.125C18.75 38.9538 19.0792 39.7487 19.6653 40.3347C20.2513 40.9208 21.0462 41.25 21.875 41.25ZM38.125 25C38.9538 25 39.7487 24.6708 40.3347 24.0847C40.9208 23.4987 41.25 22.7038 41.25 21.875C41.25 21.0462 40.9208 20.2513 40.3347 19.6653C39.7487 19.0792 38.9538 18.75 38.125 18.75C37.2962 18.75 36.5013 19.0792 35.9153 19.6653C35.3292 20.2513 35 21.0462 35 21.875C35 22.7038 35.3292 23.4987 35.9153 24.0847C36.5013 24.6708 37.2962 25 38.125 25Z" stroke="white" stroke-width="3" stroke-linecap="round" stroke-linejoin="round"/>
</svg>
