<svg width="60" height="60" viewBox="0 0 60 60" fill="none" xmlns="http://www.w3.org/2000/svg">
<rect x="0.25" y="0.25" width="59.5" height="59.5" rx="17.75" fill="#59B547"/>
<rect x="0.25" y="0.25" width="59.5" height="59.5" rx="17.75" stroke="#6BBE5A" stroke-width="0.5"/>
<path d="M34.9999 36.25L35.2624 36.5125C35.7237 36.9737 35.9537 37.2038 36.2324 37.1875C36.5112 37.1725 36.7149 36.9188 37.1224 36.4088L38.7499 34.375M35.2137 24.8875V26.875M35.2137 24.8875C35.2137 23.945 36.0062 23.1813 36.9824 23.1813C37.9574 23.1813 38.7499 23.945 38.7499 24.8862V26.875M35.2137 24.8875V21.4763C35.2137 20.535 34.4224 19.7712 33.4462 19.7712C32.4699 19.7712 31.6774 20.5338 31.6774 21.4763M31.6774 21.4763V26.875M31.6774 21.4763V19.205C31.6774 18.2625 30.8874 17.5 29.9099 17.5C28.9324 17.5 28.1424 18.2625 28.1424 19.205V22.6125M28.1424 22.6125C28.1424 21.6713 27.3499 20.9075 26.3737 20.9075C25.3987 20.9075 24.6062 21.67 24.6062 22.6125V30.7963C24.6062 31.3163 23.9399 31.5625 23.5774 31.1775L20.7149 28.1288C20.4716 27.8467 20.1454 27.6487 19.7829 27.563C19.4204 27.4772 19.0401 27.5081 18.6962 27.6513C17.4362 28.1725 17.1399 30.0113 17.9587 31.0713C19.3612 32.8863 20.7962 35.3625 21.9562 37.5463C23.5312 40.5125 26.6374 42.5 30.0899 42.5M28.1424 22.6125V26.875M31.2499 34.3175V34.8C31.2499 36.3025 31.2499 37.0538 31.4349 37.7413C31.6661 38.594 32.1011 39.3777 32.7024 40.025C33.1899 40.5525 33.8349 40.9625 35.1237 41.7838C35.6999 42.1513 35.9887 42.335 36.2962 42.4213C36.6749 42.5263 37.0762 42.5263 37.4549 42.4213C37.7612 42.335 38.0499 42.1513 38.6262 41.7838C39.9149 40.9625 40.5599 40.5525 41.0474 40.025C41.6488 39.3777 42.0838 38.594 42.3149 37.7413C42.4999 37.0538 42.4999 36.3038 42.4999 34.8V34.3175C42.4999 33.3825 42.4999 32.915 42.3224 32.52C42.2111 32.2762 42.0546 32.0556 41.8612 31.87C41.5449 31.57 41.0962 31.405 40.1987 31.0763L38.3562 30.4013C37.6237 30.1338 37.2574 30 36.8749 30C36.4924 30 36.1262 30.1337 35.3937 30.4025L33.5512 31.0775C32.6537 31.405 32.2049 31.5688 31.8887 31.87C31.6949 32.0555 31.5379 32.2761 31.4262 32.52C31.2499 32.915 31.2499 33.3825 31.2499 34.3175Z" stroke="white" stroke-width="3" stroke-linecap="round" stroke-linejoin="round"/>
</svg>
