<svg width="60" height="60" viewBox="0 0 60 60" fill="none" xmlns="http://www.w3.org/2000/svg">
<rect x="0.25" y="0.25" width="59.5" height="59.5" rx="17.75" fill="#59B547"/>
<rect x="0.25" y="0.25" width="59.5" height="59.5" rx="17.75" stroke="#6BBE5A" stroke-width="0.5"/>
<path d="M36.5658 39.8962C38.8835 38.3608 40.589 36.0607 41.3851 33.3969C42.1812 30.7331 42.0174 27.8744 40.9223 25.319C39.8271 22.7635 37.8701 20.6733 35.3921 19.4126C32.9141 18.1519 30.0724 17.8007 27.362 18.42M36.567 36.25V39.895L40.6245 39.8962M23.402 20.125C21.091 21.6658 19.3931 23.9679 18.6038 26.631C17.8145 29.294 17.9837 32.1495 19.0819 34.7007C20.1802 37.252 22.1379 39.3375 24.6148 40.5946C27.0916 41.8517 29.9307 42.2009 32.6383 41.5812M23.402 20.125V23.75M23.402 20.125H19.3745" stroke="white" stroke-width="3" stroke-linecap="round" stroke-linejoin="round"/>
<path d="M30.625 23.75L26.25 30H33.75L29.375 36.25" stroke="white" stroke-width="3" stroke-linecap="round" stroke-linejoin="round"/>
</svg>
